HIERARCHY
ROOT Hips
{
  OFFSET -27.3851 98.1195 107.712
  CHANNELS 6 Xposition Yposition Zposition Zrotation Xrotation Yrotation
  JOINT RightUpLeg
  {
    OFFSET -8.9458 -8.66707 0.101652
    CHANNELS 3 Zrotation Xrotation Yrotation
    JOINT RightLeg
    {
      OFFSET 0 -44.4227 1.3727
      CHANNELS 3 Zrotation Xrotation Yrotation
      JOINT RightFoot
      {
        OFFSET 0.253549 -42.0924 -1.46059
        CHANNELS 3 Zrotation Xrotation Yrotation
        JOINT RightToes
        {
          OFFSET 0.04 -4.41509 8.4991
          CHANNELS 3 Zrotation Xrotation Yrotation
          End Site
          {
            OFFSET -0.08 -0.137448 9.77979
          }
        }
      }
    }
  }
  JOINT Spine
  {
    OFFSET 0 11.8905 0
    CHANNELS 3 Zrotation Xrotation Yrotation
    JOINT Spine1
    {
      OFFSET 0 25.6574 0.127663
      CHANNELS 3 Zrotation Xrotation Yrotation
      JOINT HEad
      {
        OFFSET 0 8.73416 0.011341
        CHANNELS 3 Zrotation Xrotation Yrotation
        End Site
        {
          OFFSET -0.29 12.7742 2.51395
        }
      }
      JOINT LeftShoulder1
      {
        OFFSET 8.99 -0.362252 -0.22
        CHANNELS 3 Zrotation Xrotation Yrotation
        JOINT LeftArm
        {
          OFFSET 10.2827 -0.00338 0.322123
          CHANNELS 3 Zrotation Xrotation Yrotation
          JOINT LeftForeArm
          {
            OFFSET 32.7669 0.099144 -1.42434
            CHANNELS 3 Zrotation Xrotation Yrotation
            JOINT LeftHand
            {
              OFFSET 27.5643 0.085362 1.02216
              CHANNELS 3 Zrotation Xrotation Yrotation
              End Site
              {
                OFFSET 16.7443 -0.6 1.50291
              }
            }
          }
        }
      }
      JOINT RightShoulder
      {
        OFFSET -8.99 -0.362252 -0.22
        CHANNELS 3 Zrotation Xrotation Yrotation
        JOINT RightArm
        {
          OFFSET -10.2827 -0.00338 0.322123
          CHANNELS 3 Zrotation Xrotation Yrotation
          JOINT RightForeArm
          {
            OFFSET -32.8971 0.099144 -1.42434
            CHANNELS 3 Zrotation Xrotation Yrotation
            JOINT RightHand
            {
              OFFSET -27.4921 0.085362 1.02216
              CHANNELS 3 Zrotation Xrotation Yrotation
              End Site
              {
                OFFSET -16.6312 -0.6 1.50291
              }
            }
          }
        }
      }
    }
  }
  JOINT LeftUpLeg
  {
    OFFSET 8.9458 -8.66707 0.101652
    CHANNELS 3 Zrotation Xrotation Yrotation
    JOINT LeftLeg
    {
      OFFSET 0 -44.4227 1.3727
      CHANNELS 3 Zrotation Xrotation Yrotation
      JOINT LeftFoot
      {
        OFFSET -0.253549 -42.0924 -1.46059
        CHANNELS 3 Zrotation Xrotation Yrotation
        JOINT LeftToes
        {
          OFFSET -0.04 -4.41509 8.4991
          CHANNELS 3 Zrotation Xrotation Yrotation
          End Site
          {
            OFFSET 0.08 -0.047448 9.77979
          }
        }
      }
    }
  }
}
MOTION
Frames:	21
Frame Time:	0.0166667
-31.7009 97.7813 -10.5749 -6.3889 1.30939 177.793 -6.27152 -0.345687 -3.68974 -2.12396 52.4886 2.31086 5.17201 -6.40129 0.0362464 -4.50335 -0.297305 14.4649 1.54308 3.51727 -0.740413 -4.90251 -2.38573 0.120743 0.31238 -3.30855 4.05029 7.58497e-016 0 -0 -67.7328 -53.6472 22.578 -20.5417 13.7383 -10.7632 0.368473 9.90896 -0.00117928 -9.17197 0.0794004 15.0492 97.7363 -26.3501 12.7912 18.0418 16.7853 26.9611 -0.369625 9.91382 0.00119887 -6.7165 -19.4941 -4.67906 -8.35589 18.646 18.7584 -8.23064 -0.807399 0.157426 -6.78976 -1.02152 3.64168 
-31.9632 97.831 -11.9705 -6.87645 1.24452 177.589 -7.50598 -2.73829 -5.15531 -4.70785 56.501 6.21948 5.28426 -2.22078 -0.119852 -4.79789 1.38683 15.5033 0.899144 3.66113 -0.710575 -5.07288 -2.19373 0.141922 0.0507939 -3.60614 4.28201 -2.17421e-017 1.98785e-016 -3.97569e-016 -69.8258 -52.9901 20.2831 -20.6097 13.8438 -11.3037 0.368473 9.90896 -0.00117928 -9.21578 0.0709594 14.6639 97.6443 -26.8955 11.9213 18.0139 16.572 25.7627 -0.369625 9.91382 0.00119887 -7.34071 -18.9053 -5.44033 -8.81869 18.9552 19.4506 -8.37965 -1.71954 0.0943707 -6.65909 -1.25368 3.54546 
-32.2099 97.8757 -13.322 -7.27391 1.15501 177.334 -8.5805 -5.39687 -6.34319 -8.20506 60.334 10.8103 5.027 1.90372 -0.300262 -4.58754 2.78339 15.1326 0.213524 3.78042 -0.641973 -5.07641 -1.97668 0.16314 -0.191992 -3.872 4.52905 -1.2424e-017 0 -0 -72.107 -52.0746 17.7273 -20.7106 13.9447 -11.7852 0.368473 9.90896 -0.00117928 -9.13233 0.0819801 14.2216 97.3801 -27.5604 11.0468 17.9606 16.3641 24.6412 -0.369625 9.91382 0.00119887 -7.79253 -18.3487 -6.25725 -9.39328 19.1965 20.2885 -8.50153 -2.68777 0.0273943 -6.68399 -1.4749 3.53455 
-32.4145 97.9291 -14.6699 -7.44845 1.05775 177.013 -9.03882 -8.20834 -6.31486 -10.697 63.8426 13.2653 4.89006 6.61773 -0.475569 -4.60711 3.32623 15.2655 -0.245298 3.80516 -0.577164 -4.97322 -1.73843 0.177977 -0.306604 -4.11863 4.76275 8.69683e-017 5.96354e-016 -0 -74.3738 -50.9249 14.9093 -20.8227 14.0404 -12.1968 0.368473 9.90896 -0.00117928 -8.8173 0.128428 13.9179 96.9069 -28.3922 10.1494 17.8769 16.1909 23.7644 -0.369625 9.91382 0.00119887 -7.92256 -17.8323 -6.46763 -9.95353 19.5706 20.5067 -8.44797 -3.82124 -0.0530644 -7.21596 -1.71774 3.79742 
-32.6028 97.9942 -15.9926 -7.49287 0.983434 176.644 -9.16464 -11.0337 -5.54897 -12.2156 67.1946 13.296 4.52906 9.9158 -0.581186 -4.1716 3.6204 14.0551 -0.551903 3.79068 -0.518975 -4.79662 -1.44331 0.189535 -0.388903 -4.40268 5.00563 2.48481e-016 -1.98785e-016 3.97569e-016 -76.6601 -49.6247 11.84 -20.9331 14.1143 -12.4568 0.368473 9.90896 -0.00117928 -8.43942 0.183937 13.6618 96.4028 -29.3133 9.32668 17.7224 16.0236 22.9927 -0.369625 9.91382 0.00119887 -7.89391 -17.2685 -6.30985 -10.4106 19.9252 20.4135 -8.33567 -4.91297 -0.130681 -7.80486 -2.01063 4.08573 
-32.8025 98.0812 -17.2738 -7.4545 0.970356 176.18 -9.18154 -13.7017 -3.96398 -11.0264 70.4869 7.8366 3.73322 9.21608 -0.48842 -2.39421 4.25937 9.14979 -0.641752 3.76309 -0.493419 -4.59803 -1.02476 0.198911 -0.540477 -4.85736 5.32563 -4.72114e-016 0 -0 -79.0105 -48.3098 8.42979 -21.0524 14.1462 -12.4544 0.368473 9.90896 -0.00117928 -8.20537 0.218849 13.5115 96.1489 -30.2649 8.77347 17.3964 15.8265 22.2372 -0.369625 9.91382 0.00119887 -7.81946 -16.5578 -5.64749 -10.5773 20.157 19.976 -8.22354 -5.72954 -0.187154 -8.04696 -2.44082 4.16694 
-32.9816 98.183 -18.5368 -7.33214 1.01235 175.803 -8.96671 -16.1466 -2.25002 -7.03902 72.9437 -1.1295 2.52212 6.89428 -0.33342 -0.456676 4.66942 3.99022 -0.664308 3.74017 -0.473468 -4.38336 -0.579243 0.205717 -0.628639 -5.26483 5.55898 4.96962e-017 3.97569e-016 -0 -81.3014 -46.8342 4.87043 -21.0899 14.1456 -12.2659 0.368473 9.90896 -0.00117928 -7.89889 0.258518 13.215 95.85 -31.2417 8.20075 17.0591 15.6358 21.5173 -0.369625 9.91382 0.00119887 -7.70896 -15.7303 -4.94528 -10.6335 20.3047 19.4514 -8.12853 -6.45958 -0.237305 -8.16824 -2.86555 4.18202 
-33.1054 98.3081 -19.8071 -7.12205 1.12736 175.755 -8.67636 -18.2027 -1.29408 -3.56048 74.1485 -9.06186 0.508986 4.55373 -0.204906 0.253681 4.45036 1.98264 -0.734974 3.75538 -0.445224 -4.19743 -0.194176 0.210491 -0.521333 -5.42237 5.51601 1.2424e-016 0 7.95139e-016 -83.3891 -45.0463 1.33083 -20.9448 14.1164 -11.9418 0.368473 9.90896 -0.00117928 -7.25021 0.334603 12.4579 95.1755 -32.2312 7.30553 16.8738 15.4823 20.8131 -0.369625 9.91382 0.00119887 -7.56304 -14.7506 -4.70971 -10.7151 20.3305 19.1226 -8.10155 -7.22025 -0.290911 -8.26838 -3.14679 4.20238 
-33.2109 98.4195 -21.0613 -6.88244 1.28184 175.817 -8.31558 -20.0214 -0.569149 -0.743041 74.4472 -15.2557 -1.29331 1.93 -0.117753 0.539775 3.80419 0.930277 -0.891581 3.7879 -0.395285 -3.97471 0.16987 0.211522 -0.342369 -5.42065 5.33858 1.2424e-016 -7.95139e-016 -7.95139e-016 -85.3626 -43.1853 -2.198 -20.6526 14.0519 -11.4494 0.368473 9.90896 -0.00117928 -6.62117 0.399599 11.4848 94.4421 -33.1806 6.28567 16.7361 15.347 20.1522 -0.369625 9.91382 0.00119887 -7.4192 -13.741 -4.64978 -10.7851 20.3657 18.8875 -8.10434 -7.99255 -0.345208 -8.3177 -3.35721 4.20337 
-33.329 98.4753 -22.2739 -6.68972 1.4577 175.812 -7.83903 -21.7102 0.250697 0.700556 74.1935 -17.4289 -1.66675 -0.747914 -0.137158 0.846293 2.75282 -0.374373 -1.25671 3.83301 -0.292267 -3.64236 0.546266 0.207212 -0.195492 -5.29105 5.11481 5.46658e-016 3.97569e-016 -7.95139e-016 -87.4333 -41.5178 -5.81603 -20.1923 13.9265 -10.6671 0.368473 9.90896 -0.00117928 -6.38681 0.40193 10.4449 93.9712 -34.0246 5.28336 16.568 15.2213 19.5951 -0.369625 9.91382 0.00119887 -7.34395 -12.8203 -4.64881 -10.8574 20.5423 18.7819 -8.10733 -8.81361 -0.400813 -8.29879 -3.50878 4.17504 
-33.4427 98.4992 -23.4771 -6.48369 1.62629 175.867 -7.33504 -23.2257 0.926339 1.41702 73.3545 -17.9193 -1.66068 -3.35682 -0.197947 1.01264 1.38816 -1.5069 -1.69172 3.87589 -0.176196 -3.26703 0.865769 0.197752 0.00641932 -5.00684 4.81843 -9.44227e-016 0 -0 -89.4052 -39.8256 -9.30866 -19.6275 13.798 -9.91333 0.368473 9.90896 -0.00117928 -6.25093 0.382677 9.30943 93.4744 -34.795 4.19082 16.4531 15.1056 19.0231 -0.369625 9.91382 0.00119887 -7.27753 -11.9568 -4.69572 -10.9044 20.8218 18.673 -8.13582 -9.63212 -0.457467 -8.27371 -3.6455 4.14495 
-33.5522 98.4984 -24.703 -6.22518 1.75227 176.04 -6.90508 -24.5545 1.33976 2.31886 71.7899 -18.8045 -2.07456 -5.68749 -0.257789 1.01786 -0.348198 -2.42132 -2.0952 3.90586 -0.0752504 -2.88005 1.04213 0.18129 0.301682 -4.47123 4.47228 -4.96962e-017 3.97569e-016 -7.95139e-016 -91.1209 -38.0069 -12.4417 -19.0173 13.7284 -9.49285 0.368473 9.90896 -0.00117928 -6.05667 0.366759 8.08417 92.7584 -35.4978 2.91857 16.454 14.9874 18.2649 -0.369625 9.91382 0.00119887 -7.19756 -11.1483 -4.73755 -10.8873 21.2068 18.4588 -8.19106 -10.3929 -0.511756 -8.30642 -3.85299 4.13717 
-33.6362 98.4808 -25.9265 -5.92993 1.83765 176.358 -6.5224 -25.7253 1.42438 2.93245 69.6111 -19.5948 -2.40274 -7.7692 -0.31519 0.966113 -1.98366 -3.19988 -2.4772 3.90577 0.00635919 -2.51479 1.15974 0.162344 0.741135 -3.92515 4.01841 -7.45443e-017 -1.19271e-015 -0 -92.6301 -36.0868 -15.351 -18.3753 13.6958 -9.32027 0.368473 9.90896 -0.00117928 -5.75401 0.352637 6.81502 91.8421 -36.135 1.54502 16.5488 14.8897 17.5404 -0.369625 9.91382 0.00119887 -7.07438 -10.4232 -4.78716 -10.8445 21.7061 18.0801 -8.31491 -11.1447 -0.573585 -8.37278 -4.01831 4.15249 
-33.6613 98.4645 -27.1212 -5.5798 1.85863 176.917 -6.17674 -26.7705 0.978237 2.99593 66.832 -20.7086 -2.30616 -9.51861 -0.350407 0.961569 -3.02415 -3.82252 -2.81994 3.84 0.0534506 -2.21196 1.2849 0.144495 1.46272 -3.59094 3.37304 1.2424e-016 3.97569e-016 -3.97569e-016 -93.9225 -33.9903 -18.1338 -17.7004 13.6934 -9.40086 0.368473 9.90896 -0.00117928 -5.19175 0.349623 5.49921 90.6457 -36.7077 0.114592 16.757 14.839 17.0181 -0.369625 9.91382 0.00119887 -6.84306 -9.85515 -4.85753 -10.7813 22.3853 17.3769 -8.65258 -11.8897 -0.660116 -8.36285 -4.01358 4.14771 
-33.6646 98.4255 -28.3233 -5.23417 1.85677 177.567 -5.92931 -27.6566 0.279385 2.66125 63.5959 -21.4195 -2.07336 -11.0644 -0.374081 1.0697 -3.6003 -4.53653 -3.10526 3.75327 0.0707419 -1.98092 1.38571 0.128721 2.22316 -3.42875 2.63249 -2.48481e-017 -7.95139e-016 7.95139e-016 -94.9674 -31.8962 -20.6481 -17.0895 13.7323 -9.76886 0.368473 9.90896 -0.00117928 -4.5137 0.350589 4.28859 89.2862 -37.2326 -1.35118 17.0286 14.8251 16.6791 -0.369625 9.91382 0.00119887 -6.58887 -9.30531 -4.89533 -10.7316 23.076 16.5405 -8.89806 -12.7128 -0.746761 -8.5984 -3.96925 4.27866 
-33.678 98.3368 -29.5755 -4.94464 1.8661 178.17 -5.8004 -28.3527 -0.391137 2.43836 60.0466 -21.3802 -1.92345 -12.6117 -0.394377 1.50778 -3.49956 -5.89151 -3.29059 3.68715 0.0551512 -1.85176 1.41422 0.11759 2.75267 -3.50326 1.83934 -1.2424e-017 0 -0 -95.7826 -30.0057 -22.7495 -16.6328 13.8183 -10.4873 0.368473 9.90896 -0.00117928 -3.78039 0.351932 3.35769 87.776 -37.7507 -2.85238 17.3306 14.8608 16.6516 -0.369625 9.91382 0.00119887 -6.3762 -8.6349 -4.80468 -10.7898 23.6094 15.6376 -8.67412 -13.8545 -0.816321 -9.78001 -3.87292 4.91999 
-33.6837 98.226 -30.8322 -4.72 1.88622 178.783 -5.79844 -28.8865 -1.19868 2.21751 56.2005 -20.9912 -1.73029 -13.848 -0.399511 1.89959 -3.25547 -6.95949 -3.43206 3.61552 0.0149456 -1.80312 1.48493 0.109919 3.24621 -3.72473 1.07028 -1.37935e-033 -3.97569e-016 -1.98785e-016 -96.4035 -28.1648 -24.6231 -16.3397 13.9515 -11.4771 0.368473 9.90896 -0.00117928 -3.09213 0.352492 2.63568 86.3475 -38.198 -4.2801 17.6262 14.9009 16.6632 -0.369625 9.91382 0.00119887 -6.21075 -7.91666 -4.72932 -10.8403 24.0451 14.8968 -8.33665 -14.8498 -0.863565 -10.66 -4.02431 5.37205 
-33.6709 98.1011 -32.048 -4.61432 1.9408 179.444 -6.00568 -29.2726 -2.26207 1.99652 52.1028 -20.544 -1.44614 -14.4038 -0.378267 1.71263 -3.60183 -6.61195 -3.59221 3.51828 -0.0467543 -1.84678 1.76373 0.105677 3.90611 -4.06738 0.441632 1.49089e-016 0 -0 -96.812 -26.2083 -26.4231 -16.2626 14.1364 -12.7086 0.368473 9.90896 -0.00117928 -2.59017 0.348957 2.13098 85.3097 -38.5092 -5.48315 17.86 14.8971 16.4449 -0.369625 9.91382 0.00119887 -6.13454 -7.20289 -4.78381 -10.7692 24.438 14.7048 -8.13685 -15.1301 -0.862981 -9.68969 -4.96976 4.74421 
-33.6515 97.9947 -33.2658 -4.5455 1.99164 -179.943 -6.22621 -29.5094 -3.44103 1.62534 47.7806 -19.6488 -1.05358 -14.6551 -0.336099 1.49988 -3.72365 -6.0089 -3.70925 3.41894 -0.117591 -1.91309 2.04849 0.103984 4.46168 -4.40399 -0.121679 1.18805e-016 0 6.21202e-018 -97.0336 -24.3569 -28.0239 -16.3551 14.3611 -14.0982 0.368473 9.90896 -0.00117928 -2.21265 0.344042 1.78035 84.4891 -38.7554 -6.56074 18.0533 14.8692 16.1141 -0.369625 9.91382 0.00119887 -6.07829 -6.41831 -4.95574 -10.6928 24.6477 14.6673 -8.00389 -15.2464 -0.854769 -8.50973 -5.96248 3.98386 
-33.6379 97.9505 -34.5228 -4.44942 1.99394 -179.467 -6.26989 -29.599 -4.69236 0.995868 43.1558 -17.8913 -0.441874 -14.9 -0.265875 1.73439 -2.7571 -6.09842 -3.74829 3.33626 -0.185483 -1.93019 2.14837 0.103549 4.65076 -4.53672 -0.667134 1.77043e-016 0 4.96962e-017 -97.1336 -22.8 -29.3312 -16.5976 14.6192 -15.5633 0.368473 9.90896 -0.00117928 -1.94276 0.338127 1.50431 83.7759 -38.9653 -7.58251 18.2233 14.8173 15.6755 -0.369625 9.91382 0.00119887 -5.99314 -5.49045 -5.3491 -10.7175 24.5012 14.4674 -7.9666 -15.6715 -0.881337 -8.48525 -6.2528 3.93068 
-33.618 97.9434 -35.7905 -4.31966 1.99155 -179.106 -6.18063 -29.558 -5.8328 0.573245 38.4289 -15.9949 0.154945 -15.0027 -0.195066 2.08511 -1.57811 -6.39299 -3.69052 3.26438 -0.246526 -1.91655 2.19538 0.104188 4.67303 -4.65109 -1.15961 -2.42269e-016 3.97569e-016 -0 -97.0854 -21.4226 -30.4049 -16.9684 14.9063 -17.0709 0.368473 9.90896 -0.00117928 -1.78624 0.334826 1.35997 83.2551 -39.1885 -8.50684 18.3255 14.7501 15.1985 -0.369625 9.91382 0.00119887 -5.84602 -4.46406 -5.72989 -10.7318 24.1459 14.2472 -7.98333 -16.071 -0.912822 -8.69137 -6.38529 4.02459 
